<svg width="32" height="28" viewBox="0 0 32 28" fill="none" xmlns="http://www.w3.org/2000/svg">
<rect x="1" y="11" width="30" height="5" rx="1" fill="#5C5C5C" stroke="#5C5C5C" stroke-width="2"/>
<mask id="path-2-inside-1_1_1399" fill="white">
<path fill-rule="evenodd" clip-rule="evenodd" d="M31 15H1L2.86823 25.5243C3.12246 26.9565 4.36747 28 5.82205 28H26.178C27.6325 28 28.8775 26.9565 29.1318 25.5243L31 15ZM16 17C15.4477 17 15 17.4477 15 18V23C15 23.5523 15.4477 24 16 24C16.5523 24 17 23.5523 17 23V18C17 17.4477 16.5523 17 16 17ZM21 18C21 17.4477 21.4477 17 22 17C22.5523 17 23 17.4477 23 18V23C23 23.5523 22.5523 24 22 24C21.4477 24 21 23.5523 21 23V18ZM10 17C9.44771 17 9 17.4477 9 18V23C9 23.5523 9.44771 24 10 24C10.5523 24 11 23.5523 11 23V18C11 17.4477 10.5523 17 10 17Z"/>
</mask>
<path fill-rule="evenodd" clip-rule="evenodd" d="M31 15H1L2.86823 25.5243C3.12246 26.9565 4.36747 28 5.82205 28H26.178C27.6325 28 28.8775 26.9565 29.1318 25.5243L31 15ZM16 17C15.4477 17 15 17.4477 15 18V23C15 23.5523 15.4477 24 16 24C16.5523 24 17 23.5523 17 23V18C17 17.4477 16.5523 17 16 17ZM21 18C21 17.4477 21.4477 17 22 17C22.5523 17 23 17.4477 23 18V23C23 23.5523 22.5523 24 22 24C21.4477 24 21 23.5523 21 23V18ZM10 17C9.44771 17 9 17.4477 9 18V23C9 23.5523 9.44771 24 10 24C10.5523 24 11 23.5523 11 23V18C11 17.4477 10.5523 17 10 17Z" fill="#5C5C5C"/>
<path d="M1 15V13H-1.3863L-0.969214 15.3496L1 15ZM31 15L32.9692 15.3496L33.3863 13H31V15ZM2.86823 25.5243L4.83744 25.1748H4.83744L2.86823 25.5243ZM29.1318 25.5243L27.1626 25.1748L29.1318 25.5243ZM1 17H31V13H1V17ZM4.83744 25.1748L2.96921 14.6504L-0.969214 15.3496L0.899013 25.8739L4.83744 25.1748ZM5.82205 26C5.33719 26 4.92219 25.6522 4.83744 25.1748L0.899013 25.8739C1.32274 28.2609 3.39775 30 5.82205 30V26ZM26.178 26H5.82205V30H26.178V26ZM27.1626 25.1748C27.0778 25.6522 26.6628 26 26.178 26V30C28.6022 30 30.6773 28.2609 31.101 25.8739L27.1626 25.1748ZM29.0308 14.6504L27.1626 25.1748L31.101 25.8739L32.9692 15.3496L29.0308 14.6504ZM17 18C17 18.5523 16.5523 19 16 19V15C14.3431 15 13 16.3431 13 18H17ZM17 23V18H13V23H17ZM16 22C16.5523 22 17 22.4477 17 23H13C13 24.6569 14.3431 26 16 26V22ZM15 23C15 22.4477 15.4477 22 16 22V26C17.6569 26 19 24.6569 19 23H15ZM15 18V23H19V18H15ZM16 19C15.4477 19 15 18.5523 15 18H19C19 16.3431 17.6569 15 16 15V19ZM22 15C20.3431 15 19 16.3431 19 18H23C23 18.5523 22.5523 19 22 19V15ZM25 18C25 16.3431 23.6569 15 22 15V19C21.4477 19 21 18.5523 21 18H25ZM25 23V18H21V23H25ZM22 26C23.6569 26 25 24.6569 25 23H21C21 22.4477 21.4477 22 22 22V26ZM19 23C19 24.6569 20.3431 26 22 26V22C22.5523 22 23 22.4477 23 23H19ZM19 18V23H23V18H19ZM11 18C11 18.5523 10.5523 19 10 19V15C8.34314 15 7 16.3431 7 18H11ZM11 23V18H7V23H11ZM10 22C10.5523 22 11 22.4477 11 23H7C7 24.6569 8.34314 26 10 26V22ZM9 23C9 22.4477 9.44772 22 10 22V26C11.6569 26 13 24.6569 13 23H9ZM9 18V23H13V18H9ZM10 19C9.44771 19 9 18.5523 9 18H13C13 16.3431 11.6569 15 10 15V19Z" fill="#5C5C5C" mask="url(#path-2-inside-1_1_1399)"/>
<path d="M11.8854 0.94798C12.2723 0.553867 12.9054 0.548021 13.2995 0.934923C13.6937 1.32183 13.6995 1.95496 13.3126 2.34908L6.30712 9.48513C5.92022 9.87924 5.28708 9.88509 4.89297 9.49819C4.49885 9.11128 4.49301 8.47815 4.87991 8.08403L11.8854 0.94798Z" fill="#5C5C5C"/>
<path d="M20.1278 0.713605C19.7409 0.319492 19.1078 0.313646 18.7136 0.700548C18.3195 1.08745 18.3137 1.72059 18.7006 2.1147L25.7061 9.25075C26.093 9.64487 26.7261 9.65071 27.1202 9.26381C27.5143 8.87691 27.5202 8.24377 27.1333 7.84966L20.1278 0.713605Z" fill="#5C5C5C"/>
</svg>
