<svg width="32" height="28" viewBox="0 0 32 28" fill="none" xmlns="http://www.w3.org/2000/svg">
<path d="M15.0861 5.41196L16 7.47026L16.914 5.41196C17.6094 3.84572 18.8111 2.57251 20.315 1.80162C21.8187 1.0309 23.5356 0.807671 25.1803 1.16785C26.8252 1.52806 28.3018 2.4509 29.3622 3.78623C30.4227 5.1218 31.0018 6.78861 31 8.50875C30.9974 10.4998 30.2183 12.4056 28.8381 13.8102C28.8377 13.8106 28.8373 13.811 28.8369 13.8114L16.0241 26.7458L3.63899 14.2947L3.61801 14.2736L3.59582 14.2538C3.30093 13.9907 3.02283 13.7085 2.76324 13.4092C2.17764 12.7006 1.72447 11.8882 1.42689 11.0119L1.42694 11.0119L1.42338 11.0018C1.14242 10.2028 0.999121 9.36014 1.00001 8.5111L1 8.50899C0.998167 6.78877 1.57729 5.12186 2.63785 3.78623C3.69817 2.4509 5.17483 1.52806 6.81969 1.16785C8.46436 0.807671 10.1813 1.0309 11.685 1.80162C13.1889 2.57251 14.3906 3.84572 15.0861 5.41196Z" stroke="#E25454" stroke-width="2"/>
</svg>
