<svg width="22" height="20" viewBox="0 0 22 20" fill="none" xmlns="http://www.w3.org/2000/svg">
<path d="M20.884 14.2377C20.3426 13.9722 17.6819 12.6903 17.1853 12.5134C16.6894 12.3364 16.328 12.2479 15.9673 12.7788C15.6066 13.3097 14.5694 14.5031 14.2535 14.857C13.9376 15.211 13.6217 15.2549 13.0811 14.9894C12.5397 14.724 10.7955 14.1648 8.72818 12.3583C7.11916 10.9525 6.03274 9.2169 5.71687 8.68672C5.40099 8.15583 5.68289 7.86916 5.95395 7.60513C6.19755 7.36729 6.49536 6.98576 6.76569 6.67643C7.03603 6.3671 7.12639 6.14554 7.30709 5.79233C7.4878 5.4384 7.39745 5.12907 7.26228 4.86363C7.12711 4.59819 6.04431 1.98905 5.59326 0.927989C5.15378 -0.10547 4.70779 0.0346839 4.37529 0.0184034C4.06014 0.00283074 3.69872 0 3.33803 0C2.97734 0 2.39112 0.132368 1.89454 0.663255C1.39868 1.19414 0 2.47606 0 5.08519C0 7.69432 1.93935 10.215 2.21042 10.5682C2.48075 10.9221 6.02696 16.2756 11.4569 18.5718C12.7486 19.1183 13.7562 19.4439 14.5426 19.6881C15.8394 20.0916 17.019 20.035 17.9522 19.8983C18.9924 19.7462 21.1544 18.6164 21.6054 17.3784C22.0564 16.1404 22.0564 15.0786 21.9213 14.8577C21.7861 14.6362 21.4254 14.5031 20.884 14.2377Z" fill="#5C5C5C"/>
</svg>
