<svg width="16" height="16" viewBox="0 0 16 16" fill="none" xmlns="http://www.w3.org/2000/svg">
<path d="M6.93333 2.1333C6.30299 2.1333 5.67881 2.25746 5.09645 2.49868C4.51409 2.7399 3.98494 3.09347 3.53922 3.53919C3.0935 3.98491 2.73993 4.51406 2.49871 5.09642C2.25749 5.67878 2.13333 6.30296 2.13333 6.9333C2.13333 7.56365 2.25749 8.18782 2.49871 8.77018C2.73993 9.35254 3.0935 9.88169 3.53922 10.3274C3.98494 10.7731 4.51409 11.1267 5.09645 11.3679C5.67881 11.6091 6.30299 11.7333 6.93333 11.7333C7.56368 11.7333 8.18785 11.6091 8.77021 11.3679C9.35257 11.1267 9.88172 10.7731 10.3274 10.3274C10.7732 9.88169 11.1267 9.35254 11.368 8.77018C11.6092 8.18782 11.7333 7.56365 11.7333 6.9333C11.7333 6.30296 11.6092 5.67878 11.368 5.09642C11.1267 4.51406 10.7732 3.98491 10.3274 3.53919C9.88172 3.09347 9.35257 2.7399 8.77021 2.49868C8.18785 2.25746 7.56368 2.1333 6.93333 2.1333V2.1333Z" stroke="#A3A3A3" stroke-width="2" stroke-miterlimit="10"/>
<path d="M13.8667 13.8667L10.3664 10.3665" stroke="#A3A3A3" stroke-width="2" stroke-miterlimit="10" stroke-linecap="round"/>
</svg>
