<svg width="32" height="32" viewBox="0 0 32 32" fill="none" xmlns="http://www.w3.org/2000/svg">
<path fill-rule="evenodd" clip-rule="evenodd" d="M24.6891 26.978C27.9246 24.4136 30 20.4492 30 16C30 8.26801 23.732 2 16 2C8.26801 2 2 8.26801 2 16C2 20.4165 4.04503 24.3553 7.2398 26.9212C7.55957 25.1105 8.08577 22.6961 8.08577 22.6961C8.42127 20.5773 10.4866 19 12.9253 19H19.0747C21.5134 19 23.5787 20.5774 23.9142 22.6961L24.6891 26.978ZM8.6765 30.2293C10.8709 31.361 13.3608 32 16 32C24.8366 32 32 24.8366 32 16C32 7.16344 24.8366 0 16 0C7.16344 0 0 7.16344 0 16C0 21.7895 3.07497 26.8608 7.6808 29.6699C7.94801 29.8677 8.28517 30.0578 8.6765 30.2293ZM21 12C21 14.7614 18.7614 17 16 17C13.2386 17 11 14.7614 11 12C11 9.23858 13.2386 7 16 7C18.7614 7 21 9.23858 21 12Z" fill="#5C5C5C"/>
</svg>
